<?xml version="1.0" encoding="UTF-8" standalone="no"?>
<!DOCTYPE svg PUBLIC "-//W3C//DTD SVG 1.1//EN"
 "http://www.w3.org/Graphics/SVG/1.1/DTD/svg11.dtd">
<!-- Generated by graphviz version 2.38.0 (20140413.2041)
 -->
<!-- Title: my_ffd Pages: 1 -->
<svg width="1190pt" height="1045pt"
 viewBox="0.00 0.00 1190.35 1044.85" xmlns="http://www.w3.org/2000/svg" xmlns:xlink="http://www.w3.org/1999/xlink">
<g id="graph0" class="graph" transform="scale(1 1) rotate(0) translate(480.397 564.851)">
<title>my_ffd</title>
<polygon fill="white" stroke="none" points="-480.397,480 -480.397,-564.851 709.949,-564.851 709.949,480 -480.397,480"/>
<!-- alba -->
<g id="node1" class="node"><title>alba</title>
<ellipse fill="none" stroke="black" cx="367.85" cy="-100.711" rx="27.8951" ry="18"/>
<text text-anchor="middle" x="367.85" y="-97.0111" font-family="Times,serif" font-size="14.00">Alba</text>
</g>
<!-- alpina -->
<g id="node2" class="node"><title>alpina</title>
<ellipse fill="none" stroke="black" cx="-203.617" cy="262.36" rx="34.394" ry="18"/>
<text text-anchor="middle" x="-203.617" y="266.06" font-family="Times,serif" font-size="14.00">Alpina</text>
</g>
<!-- altusUhren -->
<g id="node3" class="node"><title>altusUhren</title>
<ellipse fill="none" stroke="black" cx="-200.73" cy="338.966" rx="53.8905" ry="18"/>
<text text-anchor="middle" x="-200.73" y="342.666" font-family="Times,serif" font-size="14.00">Altus Uhren</text>
</g>
<!-- glycine -->
<g id="node42" class="node"><title>glycine</title>
<ellipse fill="none" stroke="black" cx="-96.9718" cy="339.037" rx="38.1938" ry="18"/>
<text text-anchor="middle" x="-96.9718" y="342.737" font-family="Times,serif" font-size="14.00">Glycine</text>
</g>
<!-- altusUhren&#45;&gt;glycine -->
<g id="edge61" class="edge"><title>altusUhren&#45;&gt;glycine</title>
<path fill="none" stroke="black" d="M-146.723,339.003C-146.363,339.003 -146.003,339.003 -145.644,339.004"/>
<polygon fill="black" stroke="black" points="-145.33,335.504 -135.332,339.011 -145.335,342.504 -145.33,335.504"/>
</g>
<!-- ap -->
<g id="node4" class="node"><title>ap</title>
<ellipse fill="none" stroke="black" cx="242" cy="-324" rx="72.2875" ry="18"/>
<text text-anchor="middle" x="242" y="-320.3" font-family="Times,serif" font-size="14.00">Audemars Piguet</text>
</g>
<!-- arnoldAndSon -->
<g id="node5" class="node"><title>arnoldAndSon</title>
<ellipse fill="none" stroke="black" cx="61.714" cy="362.793" rx="61.99" ry="18"/>
<text text-anchor="middle" x="61.714" y="366.493" font-family="Times,serif" font-size="14.00">Arnold &amp; Son</text>
</g>
<!-- ball -->
<g id="node6" class="node"><title>ball</title>
<ellipse fill="none" stroke="black" cx="-75" cy="118" rx="27" ry="18"/>
<text text-anchor="middle" x="-75" y="121.7" font-family="Times,serif" font-size="14.00">Ball</text>
</g>
<!-- baumeEtMercier -->
<g id="node7" class="node"><title>baumeEtMercier</title>
<ellipse fill="none" stroke="black" cx="-287.482" cy="3.61008" rx="50.41" ry="26.7407"/>
<text text-anchor="middle" x="-287.482" y="-0.18992" font-family="Times,serif" font-size="14.00">Baume &amp;</text>
<text text-anchor="middle" x="-287.482" y="14.8101" font-family="Times,serif" font-size="14.00">Mercier</text>
</g>
<!-- bellAndRoss -->
<g id="node8" class="node"><title>bellAndRoss</title>
<ellipse fill="none" stroke="black" cx="-370" cy="-426" rx="54.6905" ry="18"/>
<text text-anchor="middle" x="-370" y="-422.3" font-family="Times,serif" font-size="14.00">Bell &amp; Ross</text>
</g>
<!-- blancpain -->
<g id="node9" class="node"><title>blancpain</title>
<ellipse fill="none" stroke="black" cx="279.057" cy="-394.007" rx="46.2923" ry="18"/>
<text text-anchor="middle" x="279.057" y="-390.307" font-family="Times,serif" font-size="14.00">Blancpain</text>
</g>
<!-- boucheron -->
<g id="node10" class="node"><title>boucheron</title>
<ellipse fill="none" stroke="black" cx="338.117" cy="116.749" rx="49.2915" ry="18"/>
<text text-anchor="middle" x="338.117" y="120.449" font-family="Times,serif" font-size="14.00">Boucheron</text>
</g>
<!-- bovet -->
<g id="node11" class="node"><title>bovet</title>
<ellipse fill="none" stroke="black" cx="-444" cy="67" rx="31.6951" ry="18"/>
<text text-anchor="middle" x="-444" y="70.7" font-family="Times,serif" font-size="14.00">Bovet</text>
</g>
<!-- breitling -->
<g id="node12" class="node"><title>breitling</title>
<ellipse fill="none" stroke="black" cx="-417" cy="254" rx="42.4939" ry="18"/>
<text text-anchor="middle" x="-417" y="257.7" font-family="Times,serif" font-size="14.00">Breitling</text>
</g>
<!-- breguet -->
<g id="node13" class="node"><title>breguet</title>
<ellipse fill="none" stroke="black" cx="653.077" cy="-418.279" rx="38.1938" ry="18"/>
<text text-anchor="middle" x="653.077" y="-414.579" font-family="Times,serif" font-size="14.00">Breguet</text>
</g>
<!-- bremont -->
<g id="node14" class="node"><title>bremont</title>
<ellipse fill="none" stroke="black" cx="229" cy="458" rx="42.4939" ry="18"/>
<text text-anchor="middle" x="229" y="461.7" font-family="Times,serif" font-size="14.00">Bremont</text>
</g>
<!-- bulgari -->
<g id="node15" class="node"><title>bulgari</title>
<ellipse fill="none" stroke="black" cx="-150.161" cy="-307.973" rx="37.0935" ry="18"/>
<text text-anchor="middle" x="-150.161" y="-304.273" font-family="Times,serif" font-size="14.00">Bulgari</text>
</g>
<!-- bulova -->
<g id="node16" class="node"><title>bulova</title>
<ellipse fill="none" stroke="black" cx="174.154" cy="372.94" rx="36.2938" ry="18"/>
<text text-anchor="middle" x="174.154" y="376.64" font-family="Times,serif" font-size="14.00">Bulova</text>
</g>
<!-- cartier -->
<g id="node17" class="node"><title>cartier</title>
<ellipse fill="none" stroke="black" cx="74.9435" cy="-2.44085" rx="35.194" ry="18"/>
<text text-anchor="middle" x="74.9435" y="1.25915" font-family="Times,serif" font-size="14.00">Cartier</text>
</g>
<!-- casio -->
<g id="node18" class="node"><title>casio</title>
<ellipse fill="none" stroke="black" cx="-445" cy="458" rx="30.5947" ry="18"/>
<text text-anchor="middle" x="-445" y="461.7" font-family="Times,serif" font-size="14.00">Casio</text>
</g>
<!-- certina -->
<g id="node19" class="node"><title>certina</title>
<ellipse fill="none" stroke="black" cx="411.803" cy="-251.336" rx="36.2938" ry="18"/>
<text text-anchor="middle" x="411.803" y="-247.636" font-family="Times,serif" font-size="14.00">Certina</text>
</g>
<!-- chanel -->
<g id="node20" class="node"><title>chanel</title>
<ellipse fill="none" stroke="black" cx="-423" cy="-290" rx="35.9954" ry="18"/>
<text text-anchor="middle" x="-423" y="-286.3" font-family="Times,serif" font-size="14.00">Chanel</text>
</g>
<!-- chaumet -->
<g id="node21" class="node"><title>chaumet</title>
<ellipse fill="none" stroke="black" cx="101.285" cy="-364.187" rx="42.7926" ry="18"/>
<text text-anchor="middle" x="101.285" y="-360.487" font-family="Times,serif" font-size="14.00">Chaumet</text>
</g>
<!-- chinaHaidian -->
<g id="node22" class="node"><title>chinaHaidian</title>
<ellipse fill="none" stroke="black" cx="-346.646" cy="321.404" rx="61.99" ry="18"/>
<text text-anchor="middle" x="-346.646" y="325.104" font-family="Times,serif" font-size="14.00">China Haidian</text>
</g>
<!-- corum -->
<g id="node27" class="node"><title>corum</title>
<ellipse fill="none" stroke="black" cx="-302.751" cy="263.985" rx="35.9954" ry="18"/>
<text text-anchor="middle" x="-302.751" y="267.685" font-family="Times,serif" font-size="14.00">Corum</text>
</g>
<!-- chinaHaidian&#45;&gt;corum -->
<g id="edge51" class="edge"><title>chinaHaidian&#45;&gt;corum</title>
<path fill="none" stroke="black" d="M-332.998,303.551C-329.451,298.911 -325.565,293.828 -321.795,288.897"/>
<polygon fill="black" stroke="black" points="-324.495,286.665 -315.641,280.847 -318.934,290.917 -324.495,286.665"/>
</g>
<!-- eterna -->
<g id="node33" class="node"><title>eterna</title>
<ellipse fill="none" stroke="black" cx="-370.603" cy="389.611" rx="33.5952" ry="18"/>
<text text-anchor="middle" x="-370.603" y="393.311" font-family="Times,serif" font-size="14.00">Eterna</text>
</g>
<!-- chinaHaidian&#45;&gt;eterna -->
<g id="edge52" class="edge"><title>chinaHaidian&#45;&gt;eterna</title>
<path fill="none" stroke="black" d="M-352.941,339.325C-355.37,346.24 -358.205,354.312 -360.883,361.939"/>
<polygon fill="black" stroke="black" points="-357.651,363.298 -364.268,371.573 -364.256,360.978 -357.651,363.298"/>
</g>
<!-- chopard -->
<g id="node23" class="node"><title>chopard</title>
<ellipse fill="none" stroke="black" cx="347" cy="458" rx="40.8928" ry="18"/>
<text text-anchor="middle" x="347" y="461.7" font-family="Times,serif" font-size="14.00">Chopard</text>
</g>
<!-- chronoswiss -->
<g id="node24" class="node"><title>chronoswiss</title>
<ellipse fill="none" stroke="black" cx="90" cy="441" rx="55.7903" ry="18"/>
<text text-anchor="middle" x="90" y="444.7" font-family="Times,serif" font-size="14.00">Chronoswiss</text>
</g>
<!-- citizen -->
<g id="node25" class="node"><title>citizen</title>
<ellipse fill="none" stroke="black" cx="122.967" cy="312.231" rx="36.2938" ry="18"/>
<text text-anchor="middle" x="122.967" y="315.931" font-family="Times,serif" font-size="14.00">Citizen</text>
</g>
<!-- citizen&#45;&gt;arnoldAndSon -->
<g id="edge16" class="edge"><title>citizen&#45;&gt;arnoldAndSon</title>
<path fill="none" stroke="black" d="M104.256,327.676C99.8387,331.323 95.0292,335.293 90.2858,339.208"/>
<polygon fill="black" stroke="black" points="92.3862,342.013 82.4461,345.68 87.93,336.614 92.3862,342.013"/>
</g>
<!-- citizen&#45;&gt;bulova -->
<g id="edge17" class="edge"><title>citizen&#45;&gt;bulova</title>
<path fill="none" stroke="black" d="M137.226,329.142C142.218,335.062 147.93,341.838 153.347,348.262"/>
<polygon fill="black" stroke="black" points="156.202,346.219 159.972,356.12 150.85,350.731 156.202,346.219"/>
</g>
<!-- jouxPerret -->
<g id="node55" class="node"><title>jouxPerret</title>
<ellipse fill="none" stroke="black" cx="72.3545" cy="250.938" rx="63.0888" ry="18"/>
<text text-anchor="middle" x="72.3545" y="254.638" font-family="Times,serif" font-size="14.00">La Joux&#45;Perret</text>
</g>
<!-- citizen&#45;&gt;jouxPerret -->
<g id="edge18" class="edge"><title>citizen&#45;&gt;jouxPerret</title>
<path fill="none" stroke="black" d="M109.137,295.482C104.28,289.601 98.708,282.852 93.3942,276.417"/>
<polygon fill="black" stroke="black" points="90.5434,278.462 86.875,268.522 95.9411,274.005 90.5434,278.462"/>
</g>
<!-- miyota -->
<g id="node68" class="node"><title>miyota</title>
<ellipse fill="none" stroke="black" cx="183.81" cy="261.098" rx="36.2938" ry="18"/>
<text text-anchor="middle" x="183.81" y="264.798" font-family="Times,serif" font-size="14.00">Miyota</text>
</g>
<!-- citizen&#45;&gt;miyota -->
<g id="edge19" class="edge"><title>citizen&#45;&gt;miyota</title>
<path fill="none" stroke="black" d="M141.552,296.611C146.624,292.349 152.216,287.65 157.625,283.104"/>
<polygon fill="black" stroke="black" points="155.431,280.376 165.338,276.622 159.935,285.735 155.431,280.376"/>
</g>
<!-- concord -->
<g id="node26" class="node"><title>concord</title>
<ellipse fill="none" stroke="black" cx="-349.972" cy="-511.888" rx="40.8928" ry="18"/>
<text text-anchor="middle" x="-349.972" y="-508.188" font-family="Times,serif" font-size="14.00">Concord</text>
</g>
<!-- credor -->
<g id="node28" class="node"><title>credor</title>
<ellipse fill="none" stroke="black" cx="527.631" cy="-59.2211" rx="35.194" ry="18"/>
<text text-anchor="middle" x="527.631" y="-55.5211" font-family="Times,serif" font-size="14.00">Credor</text>
</g>
<!-- dunhill -->
<g id="node29" class="node"><title>dunhill</title>
<ellipse fill="none" stroke="black" cx="-13.7368" cy="185.523" rx="37.8943" ry="18"/>
<text text-anchor="middle" x="-13.7368" y="189.223" font-family="Times,serif" font-size="14.00">Dunhill</text>
</g>
<!-- ebel -->
<g id="node30" class="node"><title>ebel</title>
<ellipse fill="none" stroke="black" cx="-218.463" cy="-533.575" rx="27" ry="18"/>
<text text-anchor="middle" x="-218.463" y="-529.875" font-family="Times,serif" font-size="14.00">Ebel</text>
</g>
<!-- esq -->
<g id="node31" class="node"><title>esq</title>
<ellipse fill="none" stroke="black" cx="-265.547" cy="-409.383" rx="27.0966" ry="18"/>
<text text-anchor="middle" x="-265.547" y="-405.683" font-family="Times,serif" font-size="14.00">ESQ</text>
</g>
<!-- eta -->
<g id="node32" class="node"><title>eta</title>
<ellipse fill="none" stroke="black" cx="453.833" cy="-526.496" rx="27.8951" ry="18"/>
<text text-anchor="middle" x="453.833" y="-522.796" font-family="Times,serif" font-size="14.00">ETA</text>
</g>
<!-- festina -->
<g id="node34" class="node"><title>festina</title>
<ellipse fill="none" stroke="black" cx="155.191" cy="-70.5373" rx="36.2938" ry="18"/>
<text text-anchor="middle" x="155.191" y="-66.8373" font-family="Times,serif" font-size="14.00">Festina</text>
</g>
<!-- perrelet -->
<g id="node78" class="node"><title>perrelet</title>
<ellipse fill="none" stroke="black" cx="239.785" cy="-69.4749" rx="38.1938" ry="18"/>
<text text-anchor="middle" x="239.785" y="-65.7749" font-family="Times,serif" font-size="14.00">Perrelet</text>
</g>
<!-- festina&#45;&gt;perrelet -->
<g id="edge57" class="edge"><title>festina&#45;&gt;perrelet</title>
<path fill="none" stroke="black" d="M192.049,-70.0744C192.146,-70.0732 192.244,-70.072 192.341,-70.0708"/>
<polygon fill="black" stroke="black" points="191.495,-73.5818 201.45,-69.9564 191.407,-66.5823 191.495,-73.5818"/>
</g>
<!-- fossil -->
<g id="node35" class="node"><title>fossil</title>
<ellipse fill="none" stroke="black" cx="337.844" cy="318.013" rx="31.6951" ry="18"/>
<text text-anchor="middle" x="337.844" y="321.713" font-family="Times,serif" font-size="14.00">Fossil</text>
</g>
<!-- relic -->
<g id="node82" class="node"><title>relic</title>
<ellipse fill="none" stroke="black" cx="413.725" cy="306.236" rx="29.4969" ry="18"/>
<text text-anchor="middle" x="413.725" y="309.936" font-family="Times,serif" font-size="14.00">Relic</text>
</g>
<!-- fossil&#45;&gt;relic -->
<g id="edge58" class="edge"><title>fossil&#45;&gt;relic</title>
<path fill="none" stroke="black" d="M368.708,313.223C370.824,312.895 372.97,312.562 375.119,312.228"/>
<polygon fill="black" stroke="black" points="374.674,308.755 385.092,310.68 375.747,315.673 374.674,308.755"/>
</g>
<!-- skagen -->
<g id="node91" class="node"><title>skagen</title>
<ellipse fill="none" stroke="black" cx="310.468" cy="389.725" rx="36.2938" ry="18"/>
<text text-anchor="middle" x="310.468" y="393.425" font-family="Times,serif" font-size="14.00">Skagen</text>
</g>
<!-- fossil&#45;&gt;skagen -->
<g id="edge59" class="edge"><title>fossil&#45;&gt;skagen</title>
<path fill="none" stroke="black" d="M331.077,335.74C328.04,343.696 324.386,353.267 321.003,362.128"/>
<polygon fill="black" stroke="black" points="324.184,363.611 317.347,371.705 317.644,361.114 324.184,363.611"/>
</g>
<!-- zodiac -->
<g id="node103" class="node"><title>zodiac</title>
<ellipse fill="none" stroke="black" cx="289.963" cy="258.025" rx="35.194" ry="18"/>
<text text-anchor="middle" x="289.963" y="261.725" font-family="Times,serif" font-size="14.00">Zodiac</text>
</g>
<!-- fossil&#45;&gt;zodiac -->
<g id="edge60" class="edge"><title>fossil&#45;&gt;zodiac</title>
<path fill="none" stroke="black" d="M324.507,301.303C320.017,295.678 314.904,289.272 310.013,283.145"/>
<polygon fill="black" stroke="black" points="307.064,285.061 303.561,275.062 312.535,280.695 307.064,285.061"/>
</g>
<!-- fortis -->
<g id="node36" class="node"><title>fortis</title>
<ellipse fill="none" stroke="black" cx="524" cy="-205" rx="31.3957" ry="18"/>
<text text-anchor="middle" x="524" y="-201.3" font-family="Times,serif" font-size="14.00">Fortis</text>
</g>
<!-- franckMuller -->
<g id="node37" class="node"><title>franckMuller</title>
<ellipse fill="none" stroke="black" cx="-278" cy="-341" rx="61.99" ry="18"/>
<text text-anchor="middle" x="-278" y="-337.3" font-family="Times,serif" font-size="14.00">Franck Muller</text>
</g>
<!-- fred -->
<g id="node38" class="node"><title>fred</title>
<ellipse fill="none" stroke="black" cx="-110.714" cy="-238.921" rx="27" ry="18"/>
<text text-anchor="middle" x="-110.714" y="-235.221" font-family="Times,serif" font-size="14.00">Fred</text>
</g>
<!-- frederiqueConstant -->
<g id="node39" class="node"><title>frederiqueConstant</title>
<ellipse fill="none" stroke="black" cx="-102.771" cy="262.503" rx="53.066" ry="26.7407"/>
<text text-anchor="middle" x="-102.771" y="258.703" font-family="Times,serif" font-size="14.00">Frédérique</text>
<text text-anchor="middle" x="-102.771" y="273.703" font-family="Times,serif" font-size="14.00">Constant</text>
</g>
<!-- frederiqueConstant&#45;&gt;alpina -->
<g id="edge1" class="edge"><title>frederiqueConstant&#45;&gt;alpina</title>
<path fill="none" stroke="black" d="M-155.852,262.428C-156.827,262.426 -157.802,262.425 -158.773,262.424"/>
<polygon fill="black" stroke="black" points="-159.014,265.923 -169.009,262.409 -159.004,258.923 -159.014,265.923"/>
</g>
<!-- girardPerregaux -->
<g id="node40" class="node"><title>girardPerregaux</title>
<ellipse fill="none" stroke="black" cx="527.985" cy="169.458" rx="50.41" ry="26.7407"/>
<text text-anchor="middle" x="527.985" y="165.658" font-family="Times,serif" font-size="14.00">Girard</text>
<text text-anchor="middle" x="527.985" y="180.658" font-family="Times,serif" font-size="14.00">Perregaux</text>
</g>
<!-- glashutteOriginal -->
<g id="node41" class="node"><title>glashutteOriginal</title>
<ellipse fill="none" stroke="black" cx="547.338" cy="-439.844" rx="48.1667" ry="26.7407"/>
<text text-anchor="middle" x="547.338" y="-443.644" font-family="Times,serif" font-size="14.00">Glashütte</text>
<text text-anchor="middle" x="547.338" y="-428.644" font-family="Times,serif" font-size="14.00">Original</text>
</g>
<!-- gucci -->
<g id="node43" class="node"><title>gucci</title>
<ellipse fill="none" stroke="black" cx="391.525" cy="220.139" rx="31.6951" ry="18"/>
<text text-anchor="middle" x="391.525" y="223.839" font-family="Times,serif" font-size="14.00">Gucci</text>
</g>
<!-- hamilton -->
<g id="node44" class="node"><title>hamilton</title>
<ellipse fill="none" stroke="black" cx="375.82" cy="-502.115" rx="44.393" ry="18"/>
<text text-anchor="middle" x="375.82" y="-498.415" font-family="Times,serif" font-size="14.00">Hamilton</text>
</g>
<!-- harryWinston -->
<g id="node45" class="node"><title>harryWinston</title>
<ellipse fill="none" stroke="black" cx="284.596" cy="-262.286" rx="63.8893" ry="18"/>
<text text-anchor="middle" x="284.596" y="-258.586" font-family="Times,serif" font-size="14.00">Harry Winston</text>
</g>
<!-- hermes -->
<g id="node46" class="node"><title>hermes</title>
<ellipse fill="none" stroke="black" cx="-421" cy="-120" rx="38.1938" ry="18"/>
<text text-anchor="middle" x="-421" y="-116.3" font-family="Times,serif" font-size="14.00">Hermès</text>
</g>
<!-- hublot -->
<g id="node47" class="node"><title>hublot</title>
<ellipse fill="none" stroke="black" cx="-44.3297" cy="-428.425" rx="35.194" ry="18"/>
<text text-anchor="middle" x="-44.3297" y="-424.725" font-family="Times,serif" font-size="14.00">Hublot</text>
</g>
<!-- invicta -->
<g id="node48" class="node"><title>invicta</title>
<ellipse fill="none" stroke="black" cx="-424" cy="152" rx="35.194" ry="18"/>
<text text-anchor="middle" x="-424" y="155.7" font-family="Times,serif" font-size="14.00">Invicta</text>
</g>
<!-- iwc -->
<g id="node49" class="node"><title>iwc</title>
<ellipse fill="none" stroke="black" cx="-22.9561" cy="-179.36" rx="28.6953" ry="18"/>
<text text-anchor="middle" x="-22.9561" y="-175.66" font-family="Times,serif" font-size="14.00">IWC</text>
</g>
<!-- jaegerLeCoultre -->
<g id="node50" class="node"><title>jaegerLeCoultre</title>
<ellipse fill="none" stroke="black" cx="115.784" cy="-182.459" rx="71.4873" ry="18"/>
<text text-anchor="middle" x="115.784" y="-178.759" font-family="Times,serif" font-size="14.00">Jaeger&#45;LeCoultre</text>
</g>
<!-- jaquetDroz -->
<g id="node51" class="node"><title>jaquetDroz</title>
<ellipse fill="none" stroke="black" cx="652.654" cy="-329.179" rx="53.0913" ry="18"/>
<text text-anchor="middle" x="652.654" y="-325.479" font-family="Times,serif" font-size="14.00">Jaquet Droz</text>
</g>
<!-- jeanRichard -->
<g id="node52" class="node"><title>jeanRichard</title>
<ellipse fill="none" stroke="black" cx="68.4774" cy="-437.022" rx="53.8905" ry="18"/>
<text text-anchor="middle" x="68.4774" y="-433.322" font-family="Times,serif" font-size="14.00">JeanRichard</text>
</g>
<!-- jorgGray -->
<g id="node53" class="node"><title>jorgGray</title>
<ellipse fill="none" stroke="black" cx="216" cy="84" rx="46.2923" ry="18"/>
<text text-anchor="middle" x="216" y="87.7" font-family="Times,serif" font-size="14.00">Jorg Gray</text>
</g>
<!-- journe -->
<g id="node54" class="node"><title>journe</title>
<ellipse fill="none" stroke="black" cx="508" cy="237" rx="48.9926" ry="18"/>
<text text-anchor="middle" x="508" y="240.7" font-family="Times,serif" font-size="14.00">F.P.Journe</text>
</g>
<!-- junghans -->
<g id="node56" class="node"><title>junghans</title>
<ellipse fill="none" stroke="black" cx="-415" cy="-358" rx="43.5923" ry="18"/>
<text text-anchor="middle" x="-415" y="-354.3" font-family="Times,serif" font-size="14.00">Junghans</text>
</g>
<!-- kering -->
<g id="node57" class="node"><title>kering</title>
<ellipse fill="none" stroke="black" cx="432.812" cy="142.776" rx="35.194" ry="18"/>
<text text-anchor="middle" x="432.812" y="146.476" font-family="Times,serif" font-size="14.00">Kering</text>
</g>
<!-- kering&#45;&gt;boucheron -->
<g id="edge34" class="edge"><title>kering&#45;&gt;boucheron</title>
<path fill="none" stroke="black" d="M401.805,134.254C397.258,133.004 392.481,131.691 387.673,130.369"/>
<polygon fill="black" stroke="black" points="386.541,133.688 377.826,127.663 388.396,126.938 386.541,133.688"/>
</g>
<!-- kering&#45;&gt;girardPerregaux -->
<g id="edge35" class="edge"><title>kering&#45;&gt;girardPerregaux</title>
<path fill="none" stroke="black" d="M463.712,151.439C466.958,152.349 470.323,153.292 473.735,154.249"/>
<polygon fill="black" stroke="black" points="474.73,150.893 483.414,156.962 472.84,157.633 474.73,150.893"/>
</g>
<!-- kering&#45;&gt;gucci -->
<g id="edge36" class="edge"><title>kering&#45;&gt;gucci</title>
<path fill="none" stroke="black" d="M423.443,160.331C418.165,170.222 411.467,182.772 405.572,193.819"/>
<polygon fill="black" stroke="black" points="408.653,195.479 400.857,202.654 402.477,192.183 408.653,195.479"/>
</g>
<!-- ulysseNardin -->
<g id="node98" class="node"><title>ulysseNardin</title>
<ellipse fill="none" stroke="black" cx="475.067" cy="65.8269" rx="61.99" ry="18"/>
<text text-anchor="middle" x="475.067" y="69.5269" font-family="Times,serif" font-size="14.00">Ulysse Nardin</text>
</g>
<!-- kering&#45;&gt;ulysseNardin -->
<g id="edge37" class="edge"><title>kering&#45;&gt;ulysseNardin</title>
<path fill="none" stroke="black" d="M442.4,125.315C447.673,115.712 454.33,103.59 460.256,92.7977"/>
<polygon fill="black" stroke="black" points="457.342,90.8333 465.223,83.7527 463.478,94.2027 457.342,90.8333"/>
</g>
<!-- kobold -->
<g id="node58" class="node"><title>kobold</title>
<ellipse fill="none" stroke="black" cx="462" cy="458" rx="37.0935" ry="18"/>
<text text-anchor="middle" x="462" y="461.7" font-family="Times,serif" font-size="14.00">Kobold</text>
</g>
<!-- langeUndSohne -->
<g id="node59" class="node"><title>langeUndSohne</title>
<ellipse fill="none" stroke="black" cx="-157.684" cy="-175.03" rx="77.9862" ry="18"/>
<text text-anchor="middle" x="-157.684" y="-171.33" font-family="Times,serif" font-size="14.00">A. Lange &amp; Söhne</text>
</g>
<!-- leonHatot -->
<g id="node60" class="node"><title>leonHatot</title>
<ellipse fill="none" stroke="black" cx="393.172" cy="-371.842" rx="50.8918" ry="18"/>
<text text-anchor="middle" x="393.172" y="-368.142" font-family="Times,serif" font-size="14.00">Léon Hatot</text>
</g>
<!-- lindeWerdelin -->
<g id="node61" class="node"><title>lindeWerdelin</title>
<ellipse fill="none" stroke="black" cx="-290" cy="-273" rx="66.8882" ry="18"/>
<text text-anchor="middle" x="-290" y="-269.3" font-family="Times,serif" font-size="14.00">Linde Werdelin</text>
</g>
<!-- longines -->
<g id="node62" class="node"><title>longines</title>
<ellipse fill="none" stroke="black" cx="642.727" cy="-239" rx="43.5923" ry="18"/>
<text text-anchor="middle" x="642.727" y="-235.3" font-family="Times,serif" font-size="14.00">Longines</text>
</g>
<!-- lorus -->
<g id="node63" class="node"><title>lorus</title>
<ellipse fill="none" stroke="black" cx="470.079" cy="-0.653631" rx="31.3957" ry="18"/>
<text text-anchor="middle" x="470.079" y="3.04637" font-family="Times,serif" font-size="14.00">Lorus</text>
</g>
<!-- louisVuitton -->
<g id="node64" class="node"><title>louisVuitton</title>
<ellipse fill="none" stroke="black" cx="-144.371" cy="-415.87" rx="59.5901" ry="18"/>
<text text-anchor="middle" x="-144.371" y="-412.17" font-family="Times,serif" font-size="14.00">Louis Vuitton</text>
</g>
<!-- lvmh -->
<g id="node65" class="node"><title>lvmh</title>
<ellipse fill="none" stroke="black" cx="-22.9141" cy="-337.818" rx="37.0935" ry="18"/>
<text text-anchor="middle" x="-22.9141" y="-334.118" font-family="Times,serif" font-size="14.00">LVMH</text>
</g>
<!-- lvmh&#45;&gt;bulgari -->
<g id="edge26" class="edge"><title>lvmh&#45;&gt;bulgari</title>
<path fill="none" stroke="black" d="M-56.3466,-329.977C-71.7133,-326.373 -90.1388,-322.051 -106.577,-318.196"/>
<polygon fill="black" stroke="black" points="-105.975,-314.742 -116.51,-315.866 -107.573,-321.557 -105.975,-314.742"/>
</g>
<!-- lvmh&#45;&gt;chaumet -->
<g id="edge27" class="edge"><title>lvmh&#45;&gt;chaumet</title>
<path fill="none" stroke="black" d="M11.3526,-345.093C24.1792,-347.817 39.0033,-350.964 52.8694,-353.908"/>
<polygon fill="black" stroke="black" points="52.2457,-357.353 62.7546,-356.007 53.6996,-350.506 52.2457,-357.353"/>
</g>
<!-- lvmh&#45;&gt;fred -->
<g id="edge28" class="edge"><title>lvmh&#45;&gt;fred</title>
<path fill="none" stroke="black" d="M-37.8081,-321.042C-52.1486,-304.889 -73.9635,-280.317 -89.995,-262.259"/>
<polygon fill="black" stroke="black" points="-87.6498,-259.629 -96.9063,-254.474 -92.8846,-264.276 -87.6498,-259.629"/>
</g>
<!-- lvmh&#45;&gt;hublot -->
<g id="edge29" class="edge"><title>lvmh&#45;&gt;hublot</title>
<path fill="none" stroke="black" d="M-27.1451,-355.719C-30.1466,-368.418 -34.2358,-385.719 -37.6721,-400.258"/>
<polygon fill="black" stroke="black" points="-41.14,-399.714 -40.0341,-410.251 -34.3277,-401.324 -41.14,-399.714"/>
</g>
<!-- lvmh&#45;&gt;jeanRichard -->
<g id="edge30" class="edge"><title>lvmh&#45;&gt;jeanRichard</title>
<path fill="none" stroke="black" d="M-7.41075,-354.647C7.07468,-370.37 28.8867,-394.047 45.4143,-411.987"/>
<polygon fill="black" stroke="black" points="43.2411,-414.794 52.5909,-419.777 48.3895,-410.051 43.2411,-414.794"/>
</g>
<!-- lvmh&#45;&gt;louisVuitton -->
<g id="edge31" class="edge"><title>lvmh&#45;&gt;louisVuitton</title>
<path fill="none" stroke="black" d="M-45.4745,-352.316C-63.7227,-364.043 -89.7032,-380.739 -110.456,-394.076"/>
<polygon fill="black" stroke="black" points="-112.472,-391.211 -118.993,-399.562 -108.688,-397.1 -112.472,-391.211"/>
</g>
<!-- tag -->
<g id="node94" class="node"><title>tag</title>
<ellipse fill="none" stroke="black" cx="98.1405" cy="-259.473" rx="52.7911" ry="18"/>
<text text-anchor="middle" x="98.1405" y="-255.773" font-family="Times,serif" font-size="14.00">TAG Heuer</text>
</g>
<!-- lvmh&#45;&gt;tag -->
<g id="edge32" class="edge"><title>lvmh&#45;&gt;tag</title>
<path fill="none" stroke="black" d="M-0.428342,-323.266C17.8791,-311.417 43.995,-294.515 64.7459,-281.086"/>
<polygon fill="black" stroke="black" points="66.7787,-283.939 73.2722,-275.567 62.9754,-278.062 66.7787,-283.939"/>
</g>
<!-- zenith -->
<g id="node102" class="node"><title>zenith</title>
<ellipse fill="none" stroke="black" cx="0.428112" cy="-247.209" rx="33.5952" ry="18"/>
<text text-anchor="middle" x="0.428112" y="-243.509" font-family="Times,serif" font-size="14.00">Zenith</text>
</g>
<!-- lvmh&#45;&gt;zenith -->
<g id="edge33" class="edge"><title>lvmh&#45;&gt;zenith</title>
<path fill="none" stroke="black" d="M-18.3024,-319.917C-15.0095,-307.134 -10.5155,-289.69 -6.75498,-275.093"/>
<polygon fill="black" stroke="black" points="-3.2794,-275.631 -4.17397,-265.074 -10.0581,-273.884 -3.2794,-275.631"/>
</g>
<!-- mbAndF -->
<g id="node66" class="node"><title>mbAndF</title>
<ellipse fill="none" stroke="black" cx="513" cy="322" rx="37.0935" ry="18"/>
<text text-anchor="middle" x="513" y="325.7" font-family="Times,serif" font-size="14.00">MB&amp;F</text>
</g>
<!-- mido -->
<g id="node67" class="node"><title>mido</title>
<ellipse fill="none" stroke="black" cx="523.797" cy="-268.555" rx="30.5947" ry="18"/>
<text text-anchor="middle" x="523.797" y="-264.855" font-family="Times,serif" font-size="14.00">Mido</text>
</g>
<!-- mondaine -->
<g id="node69" class="node"><title>mondaine</title>
<ellipse fill="none" stroke="black" cx="-412" cy="-1" rx="46.5926" ry="18"/>
<text text-anchor="middle" x="-412" y="2.7" font-family="Times,serif" font-size="14.00">Mondaine</text>
</g>
<!-- montBlanc -->
<g id="node70" class="node"><title>montBlanc</title>
<ellipse fill="none" stroke="black" cx="-311.605" cy="184.819" rx="53.0913" ry="18"/>
<text text-anchor="middle" x="-311.605" y="188.519" font-family="Times,serif" font-size="14.00">Mont Blanc</text>
</g>
<!-- movado -->
<g id="node71" class="node"><title>movado</title>
<ellipse fill="none" stroke="black" cx="-278.017" cy="-485.154" rx="40.0939" ry="18"/>
<text text-anchor="middle" x="-278.017" y="-481.454" font-family="Times,serif" font-size="14.00">Movado</text>
</g>
<!-- movado&#45;&gt;concord -->
<g id="edge55" class="edge"><title>movado&#45;&gt;concord</title>
<path fill="none" stroke="black" d="M-309.368,-496.802C-309.463,-496.837 -309.558,-496.872 -309.653,-496.907"/>
<polygon fill="black" stroke="black" points="-310.348,-493.432 -318.503,-500.196 -307.91,-499.994 -310.348,-493.432"/>
</g>
<!-- movado&#45;&gt;ebel -->
<g id="edge54" class="edge"><title>movado&#45;&gt;ebel</title>
<path fill="none" stroke="black" d="M-258.517,-501.009C-253.823,-504.825 -248.741,-508.958 -243.823,-512.956"/>
<polygon fill="black" stroke="black" points="-245.766,-515.887 -235.799,-519.48 -241.35,-510.456 -245.766,-515.887"/>
</g>
<!-- movado&#45;&gt;esq -->
<g id="edge56" class="edge"><title>movado&#45;&gt;esq</title>
<path fill="none" stroke="black" d="M-275.062,-467.197C-273.598,-458.298 -271.795,-447.347 -270.155,-437.379"/>
<polygon fill="black" stroke="black" points="-266.695,-437.909 -268.525,-427.474 -273.602,-436.773 -266.695,-437.909"/>
</g>
<!-- omega -->
<g id="node72" class="node"><title>omega</title>
<ellipse fill="none" stroke="black" cx="276.613" cy="-527.264" rx="36.2938" ry="18"/>
<text text-anchor="middle" x="276.613" y="-523.564" font-family="Times,serif" font-size="14.00">Omega</text>
</g>
<!-- orient -->
<g id="node73" class="node"><title>orient</title>
<ellipse fill="none" stroke="black" cx="426.257" cy="-159.839" rx="33.2948" ry="18"/>
<text text-anchor="middle" x="426.257" y="-156.139" font-family="Times,serif" font-size="14.00">Orient</text>
</g>
<!-- oris -->
<g id="node74" class="node"><title>oris</title>
<ellipse fill="none" stroke="black" cx="-449" cy="-494" rx="27" ry="18"/>
<text text-anchor="middle" x="-449" y="-490.3" font-family="Times,serif" font-size="14.00">Oris</text>
</g>
<!-- panerai -->
<g id="node75" class="node"><title>panerai</title>
<ellipse fill="none" stroke="black" cx="280.517" cy="186.235" rx="37.0935" ry="18"/>
<text text-anchor="middle" x="280.517" y="189.935" font-family="Times,serif" font-size="14.00">Panerai</text>
</g>
<!-- parmigianiFleurier -->
<g id="node76" class="node"><title>parmigianiFleurier</title>
<ellipse fill="none" stroke="black" cx="-301" cy="-78" rx="55.7232" ry="26.7407"/>
<text text-anchor="middle" x="-301" y="-81.8" font-family="Times,serif" font-size="14.00">Parmigiana</text>
<text text-anchor="middle" x="-301" y="-66.8" font-family="Times,serif" font-size="14.00">Fleurier</text>
</g>
<!-- patek -->
<g id="node77" class="node"><title>patek</title>
<ellipse fill="none" stroke="black" cx="-312" cy="84" rx="61.99" ry="18"/>
<text text-anchor="middle" x="-312" y="87.7" font-family="Times,serif" font-size="14.00">Patek Philippe</text>
</g>
<!-- piaget -->
<g id="node79" class="node"><title>piaget</title>
<ellipse fill="none" stroke="black" cx="-151.834" cy="181.779" rx="32.4942" ry="18"/>
<text text-anchor="middle" x="-151.834" y="185.479" font-family="Times,serif" font-size="14.00">Piaget</text>
</g>
<!-- pulsar -->
<g id="node80" class="node"><title>pulsar</title>
<ellipse fill="none" stroke="black" cx="506.185" cy="-138.452" rx="32.4942" ry="18"/>
<text text-anchor="middle" x="506.185" y="-134.752" font-family="Times,serif" font-size="14.00">Pulsar</text>
</g>
<!-- ralfLauren -->
<g id="node81" class="node"><title>ralfLauren</title>
<ellipse fill="none" stroke="black" cx="121.66" cy="179.341" rx="79.0865" ry="18"/>
<text text-anchor="middle" x="121.66" y="183.041" font-family="Times,serif" font-size="14.00">Ralf Lauren Watch</text>
</g>
<!-- richardMille -->
<g id="node83" class="node"><title>richardMille</title>
<ellipse fill="none" stroke="black" cx="434" cy="390" rx="60.3893" ry="18"/>
<text text-anchor="middle" x="434" y="393.7" font-family="Times,serif" font-size="14.00">Richard Mille</text>
</g>
<!-- richemont -->
<g id="node84" class="node"><title>richemont</title>
<ellipse fill="none" stroke="black" cx="-91.942" cy="4.44334" rx="50.0912" ry="18"/>
<text text-anchor="middle" x="-91.942" y="8.14334" font-family="Times,serif" font-size="14.00">Richemont</text>
</g>
<!-- richemont&#45;&gt;baumeEtMercier -->
<g id="edge38" class="edge"><title>richemont&#45;&gt;baumeEtMercier</title>
<path fill="none" stroke="black" d="M-142.044,4.22984C-167.931,4.11952 -199.721,3.98406 -226.971,3.86794"/>
<polygon fill="black" stroke="black" points="-227.185,7.36715 -237.17,3.82447 -227.155,0.367217 -227.185,7.36715"/>
</g>
<!-- richemont&#45;&gt;cartier -->
<g id="edge39" class="edge"><title>richemont&#45;&gt;cartier</title>
<path fill="none" stroke="black" d="M-41.8709,2.37786C-19.1607,1.44104 7.49796,0.341341 29.6097,-0.570789"/>
<polygon fill="black" stroke="black" points="29.6036,-4.07342 39.7394,-0.988649 29.8921,2.92063 29.6036,-4.07342"/>
</g>
<!-- richemont&#45;&gt;dunhill -->
<g id="edge40" class="edge"><title>richemont&#45;&gt;dunhill</title>
<path fill="none" stroke="black" d="M-84.1575,22.468C-70.3613,54.4121 -41.5549,121.112 -25.3865,158.549"/>
<polygon fill="black" stroke="black" points="-22.1263,157.27 -21.3745,167.838 -28.5526,160.046 -22.1263,157.27"/>
</g>
<!-- richemont&#45;&gt;iwc -->
<g id="edge41" class="edge"><title>richemont&#45;&gt;iwc</title>
<path fill="none" stroke="black" d="M-85.2017,-13.5152C-73.064,-45.8545 -47.4669,-114.055 -33.1673,-152.154"/>
<polygon fill="black" stroke="black" points="-36.4129,-153.467 -29.6222,-161.599 -29.8593,-151.007 -36.4129,-153.467"/>
</g>
<!-- richemont&#45;&gt;jaegerLeCoultre -->
<g id="edge42" class="edge"><title>richemont&#45;&gt;jaegerLeCoultre</title>
<path fill="none" stroke="black" d="M-73.1414,-12.4726C-36.192,-45.7179 46.0062,-119.676 88.7661,-158.149"/>
<polygon fill="black" stroke="black" points="86.4966,-160.816 96.2715,-164.902 91.1787,-155.612 86.4966,-160.816"/>
</g>
<!-- richemont&#45;&gt;langeUndSohne -->
<g id="edge43" class="edge"><title>richemont&#45;&gt;langeUndSohne</title>
<path fill="none" stroke="black" d="M-98.4859,-13.4214C-109.975,-44.7853 -133.846,-109.954 -147.506,-147.244"/>
<polygon fill="black" stroke="black" points="-150.915,-146.377 -151.069,-156.971 -144.343,-148.785 -150.915,-146.377"/>
</g>
<!-- richemont&#45;&gt;montBlanc -->
<g id="edge44" class="edge"><title>richemont&#45;&gt;montBlanc</title>
<path fill="none" stroke="black" d="M-112.214,21.0893C-151.508,53.3561 -238.127,124.483 -283.159,161.461"/>
<polygon fill="black" stroke="black" points="-281.113,164.31 -291.063,167.951 -285.555,158.9 -281.113,164.31"/>
</g>
<!-- richemont&#45;&gt;panerai -->
<g id="edge45" class="edge"><title>richemont&#45;&gt;panerai</title>
<path fill="none" stroke="black" d="M-62.0917,19.0128C5.80794,52.1536 171.587,133.068 244.781,168.793"/>
<polygon fill="black" stroke="black" points="246.612,165.791 254.063,173.323 243.541,172.082 246.612,165.791"/>
</g>
<!-- richemont&#45;&gt;piaget -->
<g id="edge46" class="edge"><title>richemont&#45;&gt;piaget</title>
<path fill="none" stroke="black" d="M-98.0144,22.4232C-108.534,53.5718 -130.208,117.747 -142.602,154.444"/>
<polygon fill="black" stroke="black" points="-139.319,155.661 -145.835,164.016 -145.951,153.421 -139.319,155.661"/>
</g>
<!-- richemont&#45;&gt;ralfLauren -->
<g id="edge47" class="edge"><title>richemont&#45;&gt;ralfLauren</title>
<path fill="none" stroke="black" d="M-71.4609,21.2133C-33.3991,52.3784 48.3502,119.315 92.2908,155.294"/>
<polygon fill="black" stroke="black" points="94.7738,152.803 100.294,161.846 90.339,158.219 94.7738,152.803"/>
</g>
<!-- rogerDubuis -->
<g id="node87" class="node"><title>rogerDubuis</title>
<ellipse fill="none" stroke="black" cx="-313.761" cy="-179.006" rx="59.5901" ry="18"/>
<text text-anchor="middle" x="-313.761" y="-175.306" font-family="Times,serif" font-size="14.00">Roger Dubuis</text>
</g>
<!-- richemont&#45;&gt;rogerDubuis -->
<g id="edge48" class="edge"><title>richemont&#45;&gt;rogerDubuis</title>
<path fill="none" stroke="black" d="M-112.018,-12.1601C-151.657,-44.9421 -240.062,-118.055 -285.541,-155.667"/>
<polygon fill="black" stroke="black" points="-287.773,-152.971 -293.249,-162.042 -283.312,-158.366 -287.773,-152.971"/>
</g>
<!-- vacheronConstantin -->
<g id="node99" class="node"><title>vacheronConstantin</title>
<ellipse fill="none" stroke="black" cx="263.568" cy="2.76515" rx="53.066" ry="26.7407"/>
<text text-anchor="middle" x="263.568" y="-1.03485" font-family="Times,serif" font-size="14.00">Vacheron</text>
<text text-anchor="middle" x="263.568" y="13.9652" font-family="Times,serif" font-size="14.00">Constantin</text>
</g>
<!-- richemont&#45;&gt;vacheronConstantin -->
<g id="edge49" class="edge"><title>richemont&#45;&gt;vacheronConstantin</title>
<path fill="none" stroke="black" d="M-41.7601,4.20646C21.6857,3.90696 130.961,3.39113 200.129,3.06462"/>
<polygon fill="black" stroke="black" points="200.436,-0.436771 210.452,3.01589 200.469,6.56315 200.436,-0.436771"/>
</g>
<!-- vanCleef -->
<g id="node100" class="node"><title>vanCleef</title>
<ellipse fill="none" stroke="black" cx="278.904" cy="-179.807" rx="82.5854" ry="18"/>
<text text-anchor="middle" x="278.904" y="-176.107" font-family="Times,serif" font-size="14.00">Van Cleef &amp; Arpels</text>
</g>
<!-- richemont&#45;&gt;vanCleef -->
<g id="edge50" class="edge"><title>richemont&#45;&gt;vanCleef</title>
<path fill="none" stroke="black" d="M-62.5324,-10.1685C2.77209,-42.6141 160.099,-120.78 236.223,-158.601"/>
<polygon fill="black" stroke="black" points="235.018,-161.911 245.531,-163.226 238.133,-155.642 235.018,-161.911"/>
</g>
<!-- rado -->
<g id="node85" class="node"><title>rado</title>
<ellipse fill="none" stroke="black" cx="661.08" cy="-527.648" rx="29.4969" ry="18"/>
<text text-anchor="middle" x="661.08" y="-523.948" font-family="Times,serif" font-size="14.00">Rado</text>
</g>
<!-- raymondWeil -->
<g id="node86" class="node"><title>raymondWeil</title>
<ellipse fill="none" stroke="black" cx="-240" cy="407" rx="65.7887" ry="18"/>
<text text-anchor="middle" x="-240" y="410.7" font-family="Times,serif" font-size="14.00">Raymond Weil</text>
</g>
<!-- rolex -->
<g id="node88" class="node"><title>rolex</title>
<ellipse fill="none" stroke="black" cx="-104.605" cy="413.68" rx="31.6951" ry="18"/>
<text text-anchor="middle" x="-104.605" y="417.38" font-family="Times,serif" font-size="14.00">Rolex</text>
</g>
<!-- tudor -->
<g id="node96" class="node"><title>tudor</title>
<ellipse fill="none" stroke="black" cx="-33.3952" cy="424.32" rx="32.4942" ry="18"/>
<text text-anchor="middle" x="-33.3952" y="428.02" font-family="Times,serif" font-size="14.00">Tudor</text>
</g>
<!-- rolex&#45;&gt;tudor -->
<g id="edge53" class="edge"><title>rolex&#45;&gt;tudor</title>
<path fill="none" stroke="black" d="M-73.5784,418.316C-73.4894,418.329 -73.4003,418.343 -73.3112,418.356"/>
<polygon fill="black" stroke="black" points="-74.3614,414.66 -64.9884,419.599 -75.3958,421.583 -74.3614,414.66"/>
</g>
<!-- seagull -->
<g id="node89" class="node"><title>seagull</title>
<ellipse fill="none" stroke="black" cx="235" cy="-460" rx="64.9885" ry="18"/>
<text text-anchor="middle" x="235" y="-456.3" font-family="Times,serif" font-size="14.00">Tianjin Seagull</text>
</g>
<!-- seiko -->
<g id="node90" class="node"><title>seiko</title>
<ellipse fill="none" stroke="black" cx="447.73" cy="-80.1741" rx="30.5947" ry="18"/>
<text text-anchor="middle" x="447.73" y="-76.4741" font-family="Times,serif" font-size="14.00">Seiko</text>
</g>
<!-- seiko&#45;&gt;alba -->
<g id="edge20" class="edge"><title>seiko&#45;&gt;alba</title>
<path fill="none" stroke="black" d="M419.342,-87.4725C414.314,-88.7652 409.019,-90.1266 403.814,-91.4647"/>
<polygon fill="black" stroke="black" points="402.826,-88.1049 394.012,-93.9847 404.569,-94.8844 402.826,-88.1049"/>
</g>
<!-- seiko&#45;&gt;credor -->
<g id="edge21" class="edge"><title>seiko&#45;&gt;credor</title>
<path fill="none" stroke="black" d="M475.675,-72.8458C479.214,-71.9179 482.891,-70.9537 486.58,-69.9862"/>
<polygon fill="black" stroke="black" points="487.503,-73.3625 496.288,-67.4403 485.728,-66.5914 487.503,-73.3625"/>
</g>
<!-- seiko&#45;&gt;lorus -->
<g id="edge22" class="edge"><title>seiko&#45;&gt;lorus</title>
<path fill="none" stroke="black" d="M452.801,-62.1297C455.602,-52.1658 459.139,-39.5774 462.283,-28.3906"/>
<polygon fill="black" stroke="black" points="465.691,-29.2007 465.027,-18.6266 458.952,-27.3067 465.691,-29.2007"/>
</g>
<!-- seiko&#45;&gt;orient -->
<g id="edge23" class="edge"><title>seiko&#45;&gt;orient</title>
<path fill="none" stroke="black" d="M442.858,-98.2512C440.167,-108.233 436.768,-120.844 433.747,-132.051"/>
<polygon fill="black" stroke="black" points="430.334,-131.267 431.111,-141.833 437.093,-133.089 430.334,-131.267"/>
</g>
<!-- seiko&#45;&gt;pulsar -->
<g id="edge24" class="edge"><title>seiko&#45;&gt;pulsar</title>
<path fill="none" stroke="black" d="M463.395,-95.7914C469.326,-101.704 476.214,-108.572 482.708,-115.046"/>
<polygon fill="black" stroke="black" points="480.516,-117.803 490.069,-122.385 485.458,-112.846 480.516,-117.803"/>
</g>
<!-- wired -->
<g id="node101" class="node"><title>wired</title>
<ellipse fill="none" stroke="black" cx="390.269" cy="-20.9497" rx="33.2948" ry="18"/>
<text text-anchor="middle" x="390.269" y="-17.2497" font-family="Times,serif" font-size="14.00">Wired</text>
</g>
<!-- seiko&#45;&gt;wired -->
<g id="edge25" class="edge"><title>seiko&#45;&gt;wired</title>
<path fill="none" stroke="black" d="M432.331,-64.3031C426.501,-58.2941 419.73,-51.3151 413.347,-44.7357"/>
<polygon fill="black" stroke="black" points="415.586,-42.0174 406.11,-37.2775 410.562,-46.8919 415.586,-42.0174"/>
</g>
<!-- steinhart -->
<g id="node92" class="node"><title>steinhart</title>
<ellipse fill="none" stroke="black" cx="-60" cy="-494" rx="42.4939" ry="18"/>
<text text-anchor="middle" x="-60" y="-490.3" font-family="Times,serif" font-size="14.00">Steinhart</text>
</g>
<!-- swatch -->
<g id="node93" class="node"><title>swatch</title>
<ellipse fill="none" stroke="black" cx="490.992" cy="-378.499" rx="36.2938" ry="18"/>
<text text-anchor="middle" x="490.992" y="-374.799" font-family="Times,serif" font-size="14.00">Swatch</text>
</g>
<!-- swatch&#45;&gt;blancpain -->
<g id="edge2" class="edge"><title>swatch&#45;&gt;blancpain</title>
<path fill="none" stroke="black" d="M454.559,-381.165C421.672,-383.571 372.788,-387.149 334.958,-389.917"/>
<polygon fill="black" stroke="black" points="334.322,-386.454 324.604,-390.674 334.833,-393.435 334.322,-386.454"/>
</g>
<!-- swatch&#45;&gt;breguet -->
<g id="edge3" class="edge"><title>swatch&#45;&gt;breguet</title>
<path fill="none" stroke="black" d="M523.792,-386.549C548.317,-392.568 582.11,-400.862 608.996,-407.461"/>
<polygon fill="black" stroke="black" points="608.382,-410.914 618.928,-409.898 610.051,-404.115 608.382,-410.914"/>
</g>
<!-- swatch&#45;&gt;certina -->
<g id="edge4" class="edge"><title>swatch&#45;&gt;certina</title>
<path fill="none" stroke="black" d="M480.147,-361.084C466.641,-339.396 443.452,-302.159 427.878,-277.15"/>
<polygon fill="black" stroke="black" points="430.774,-275.179 422.517,-268.54 424.832,-278.879 430.774,-275.179"/>
</g>
<!-- swatch&#45;&gt;eta -->
<g id="edge5" class="edge"><title>swatch&#45;&gt;eta</title>
<path fill="none" stroke="black" d="M486.435,-396.646C480.021,-422.193 468.276,-468.973 460.772,-498.858"/>
<polygon fill="black" stroke="black" points="457.351,-498.111 458.31,-508.662 464.14,-499.816 457.351,-498.111"/>
</g>
<!-- swatch&#45;&gt;glashutteOriginal -->
<g id="edge7" class="edge"><title>swatch&#45;&gt;glashutteOriginal</title>
<path fill="none" stroke="black" d="M506.092,-394.938C509.851,-399.031 514.009,-403.557 518.195,-408.115"/>
<polygon fill="black" stroke="black" points="515.86,-410.747 525.203,-415.744 521.016,-406.012 515.86,-410.747"/>
</g>
<!-- swatch&#45;&gt;hamilton -->
<g id="edge8" class="edge"><title>swatch&#45;&gt;hamilton</title>
<path fill="none" stroke="black" d="M475.698,-394.914C455.931,-416.13 421.348,-453.249 398.514,-477.757"/>
<polygon fill="black" stroke="black" points="395.803,-475.533 391.547,-485.235 400.924,-480.305 395.803,-475.533"/>
</g>
<!-- swatch&#45;&gt;harryWinston -->
<g id="edge9" class="edge"><title>swatch&#45;&gt;harryWinston</title>
<path fill="none" stroke="black" d="M466.912,-364.94C431.346,-344.915 364.448,-307.247 322.329,-283.532"/>
<polygon fill="black" stroke="black" points="323.911,-280.406 313.48,-278.549 320.476,-286.506 323.911,-280.406"/>
</g>
<!-- swatch&#45;&gt;jaquetDroz -->
<g id="edge10" class="edge"><title>swatch&#45;&gt;jaquetDroz</title>
<path fill="none" stroke="black" d="M522.162,-368.989C545.105,-361.99 576.763,-352.332 603.151,-344.281"/>
<polygon fill="black" stroke="black" points="604.434,-347.549 612.978,-341.283 602.392,-340.854 604.434,-347.549"/>
</g>
<!-- swatch&#45;&gt;leonHatot -->
<g id="edge11" class="edge"><title>swatch&#45;&gt;leonHatot</title>
<path fill="none" stroke="black" d="M454.845,-376.039C454.369,-376.007 453.891,-375.974 453.411,-375.942"/>
<polygon fill="black" stroke="black" points="453.399,-372.433 443.184,-375.246 452.923,-379.417 453.399,-372.433"/>
</g>
<!-- swatch&#45;&gt;longines -->
<g id="edge12" class="edge"><title>swatch&#45;&gt;longines</title>
<path fill="none" stroke="black" d="M508.398,-362.497C535.093,-337.954 586.292,-290.884 617.193,-262.475"/>
<polygon fill="black" stroke="black" points="619.592,-265.024 624.585,-255.68 614.854,-259.871 619.592,-265.024"/>
</g>
<!-- swatch&#45;&gt;mido -->
<g id="edge13" class="edge"><title>swatch&#45;&gt;mido</title>
<path fill="none" stroke="black" d="M496.409,-360.344C501.616,-342.893 509.557,-316.281 515.55,-296.196"/>
<polygon fill="black" stroke="black" points="518.976,-296.955 518.481,-286.372 512.268,-294.954 518.976,-296.955"/>
</g>
<!-- swatch&#45;&gt;omega -->
<g id="edge6" class="edge"><title>swatch&#45;&gt;omega</title>
<path fill="none" stroke="black" d="M469.653,-393.307C431.129,-420.04 349.909,-476.401 306.105,-506.799"/>
<polygon fill="black" stroke="black" points="304.087,-503.939 297.866,-512.516 308.077,-509.69 304.087,-503.939"/>
</g>
<!-- swatch&#45;&gt;rado -->
<g id="edge14" class="edge"><title>swatch&#45;&gt;rado</title>
<path fill="none" stroke="black" d="M508.873,-394.178C539.352,-420.905 601.431,-475.342 636.152,-505.788"/>
<polygon fill="black" stroke="black" points="634.118,-508.66 643.944,-512.622 638.733,-503.397 634.118,-508.66"/>
</g>
<!-- tissot -->
<g id="node95" class="node"><title>tissot</title>
<ellipse fill="none" stroke="black" cx="548.535" cy="-542.851" rx="32.4942" ry="18"/>
<text text-anchor="middle" x="548.535" y="-539.151" font-family="Times,serif" font-size="14.00">Tissot</text>
</g>
<!-- swatch&#45;&gt;tissot -->
<g id="edge15" class="edge"><title>swatch&#45;&gt;tissot</title>
<path fill="none" stroke="black" d="M497.259,-396.4C507.291,-425.051 527.025,-481.415 538.871,-515.25"/>
<polygon fill="black" stroke="black" points="535.667,-516.69 542.275,-524.972 542.274,-514.377 535.667,-516.69"/>
</g>
<!-- tutima -->
<g id="node97" class="node"><title>tutima</title>
<ellipse fill="none" stroke="black" cx="-440" cy="-222" rx="36.2938" ry="18"/>
<text text-anchor="middle" x="-440" y="-218.3" font-family="Times,serif" font-size="14.00">Tutima</text>
</g>
</g>
</svg>
