<?xml version="1.0" encoding="UTF-8" standalone="no"?>
<!DOCTYPE svg PUBLIC "-//W3C//DTD SVG 1.1//EN"
 "http://www.w3.org/Graphics/SVG/1.1/DTD/svg11.dtd">
<!-- Generated by graphviz version 2.38.0 (20140413.2041)
 -->
<!-- Title: my_ffd Pages: 1 -->
<svg width="1066pt" height="934pt"
 viewBox="0.00 0.00 1066.07 934.20" xmlns="http://www.w3.org/2000/svg" xmlns:xlink="http://www.w3.org/1999/xlink">
<g id="graph0" class="graph" transform="scale(1 1) rotate(0) translate(381.946 531.202)">
<title>my_ffd</title>
<polygon fill="white" stroke="none" points="-381.946,403 -381.946,-531.202 684.12,-531.202 684.12,403 -381.946,403"/>
<!-- alpina -->
<g id="node1" class="node"><title>alpina</title>
<ellipse fill="none" stroke="black" cx="34.7582" cy="254.998" rx="34.394" ry="18"/>
<text text-anchor="middle" x="34.7582" y="258.698" font-family="Times,serif" font-size="14.00">Alpina</text>
</g>
<!-- ap -->
<g id="node2" class="node"><title>ap</title>
<ellipse fill="none" stroke="black" cx="-201" cy="255" rx="72.2875" ry="18"/>
<text text-anchor="middle" x="-201" y="258.7" font-family="Times,serif" font-size="14.00">Audemars Piguet</text>
</g>
<!-- baumeEtMercier -->
<g id="node3" class="node"><title>baumeEtMercier</title>
<ellipse fill="none" stroke="black" cx="-197.635" cy="25.376" rx="76.8869" ry="18"/>
<text text-anchor="middle" x="-197.635" y="29.076" font-family="Times,serif" font-size="14.00">Baume &amp; Mercier</text>
</g>
<!-- blancpain -->
<g id="node4" class="node"><title>blancpain</title>
<ellipse fill="none" stroke="black" cx="224.406" cy="-350.543" rx="46.2923" ry="18"/>
<text text-anchor="middle" x="224.406" y="-346.843" font-family="Times,serif" font-size="14.00">Blancpain</text>
</g>
<!-- boucheron -->
<g id="node5" class="node"><title>boucheron</title>
<ellipse fill="none" stroke="black" cx="259.523" cy="-37.0932" rx="49.2915" ry="18"/>
<text text-anchor="middle" x="259.523" y="-33.3932" font-family="Times,serif" font-size="14.00">Boucheron</text>
</g>
<!-- breitling -->
<g id="node6" class="node"><title>breitling</title>
<ellipse fill="none" stroke="black" cx="210" cy="339" rx="42.4939" ry="18"/>
<text text-anchor="middle" x="210" y="342.7" font-family="Times,serif" font-size="14.00">Breitling</text>
</g>
<!-- breguet -->
<g id="node7" class="node"><title>breguet</title>
<ellipse fill="none" stroke="black" cx="641.773" cy="-381.364" rx="38.1938" ry="18"/>
<text text-anchor="middle" x="641.773" y="-377.664" font-family="Times,serif" font-size="14.00">Breguet</text>
</g>
<!-- bulgari -->
<g id="node8" class="node"><title>bulgari</title>
<ellipse fill="none" stroke="black" cx="-21.286" cy="-238.207" rx="37.0935" ry="18"/>
<text text-anchor="middle" x="-21.286" y="-234.507" font-family="Times,serif" font-size="14.00">Bulgari</text>
</g>
<!-- bulova -->
<g id="node9" class="node"><title>bulova</title>
<ellipse fill="none" stroke="black" cx="-215.382" cy="-395.934" rx="36.2938" ry="18"/>
<text text-anchor="middle" x="-215.382" y="-392.234" font-family="Times,serif" font-size="14.00">Bulova</text>
</g>
<!-- cartier -->
<g id="node10" class="node"><title>cartier</title>
<ellipse fill="none" stroke="black" cx="261.463" cy="-126.044" rx="35.194" ry="18"/>
<text text-anchor="middle" x="261.463" y="-122.344" font-family="Times,serif" font-size="14.00">Cartier</text>
</g>
<!-- certina -->
<g id="node11" class="node"><title>certina</title>
<ellipse fill="none" stroke="black" cx="370.006" cy="-198.146" rx="36.2938" ry="18"/>
<text text-anchor="middle" x="370.006" y="-194.446" font-family="Times,serif" font-size="14.00">Certina</text>
</g>
<!-- chanel -->
<g id="node12" class="node"><title>chanel</title>
<ellipse fill="none" stroke="black" cx="-321" cy="-375" rx="35.9954" ry="18"/>
<text text-anchor="middle" x="-321" y="-371.3" font-family="Times,serif" font-size="14.00">Chanel</text>
</g>
<!-- chinaHaidian -->
<g id="node13" class="node"><title>chinaHaidian</title>
<ellipse fill="none" stroke="black" cx="355.354" cy="249.404" rx="61.99" ry="18"/>
<text text-anchor="middle" x="355.354" y="253.104" font-family="Times,serif" font-size="14.00">China Haidian</text>
</g>
<!-- corum -->
<g id="node16" class="node"><title>corum</title>
<ellipse fill="none" stroke="black" cx="399.249" cy="191.985" rx="35.9954" ry="18"/>
<text text-anchor="middle" x="399.249" y="195.685" font-family="Times,serif" font-size="14.00">Corum</text>
</g>
<!-- chinaHaidian&#45;&gt;corum -->
<g id="edge38" class="edge"><title>chinaHaidian&#45;&gt;corum</title>
<path fill="none" stroke="black" d="M369.002,231.551C372.549,226.911 376.435,221.828 380.205,216.897"/>
<polygon fill="black" stroke="black" points="377.505,214.665 386.359,208.847 383.066,218.917 377.505,214.665"/>
</g>
<!-- eterna -->
<g id="node18" class="node"><title>eterna</title>
<ellipse fill="none" stroke="black" cx="331.397" cy="317.611" rx="33.5952" ry="18"/>
<text text-anchor="middle" x="331.397" y="321.311" font-family="Times,serif" font-size="14.00">Eterna</text>
</g>
<!-- chinaHaidian&#45;&gt;eterna -->
<g id="edge39" class="edge"><title>chinaHaidian&#45;&gt;eterna</title>
<path fill="none" stroke="black" d="M349.059,267.325C346.63,274.24 343.795,282.312 341.117,289.939"/>
<polygon fill="black" stroke="black" points="344.349,291.298 337.732,299.573 337.744,288.978 344.349,291.298"/>
</g>
<!-- chopard -->
<g id="node14" class="node"><title>chopard</title>
<ellipse fill="none" stroke="black" cx="-337" cy="108" rx="40.8928" ry="18"/>
<text text-anchor="middle" x="-337" y="111.7" font-family="Times,serif" font-size="14.00">Chopard</text>
</g>
<!-- citizen -->
<g id="node15" class="node"><title>citizen</title>
<ellipse fill="none" stroke="black" cx="-171.361" cy="-338.61" rx="36.2938" ry="18"/>
<text text-anchor="middle" x="-171.361" y="-334.91" font-family="Times,serif" font-size="14.00">Citizen</text>
</g>
<!-- citizen&#45;&gt;bulova -->
<g id="edge16" class="edge"><title>citizen&#45;&gt;bulova</title>
<path fill="none" stroke="black" d="M-184.331,-355.499C-188.059,-360.354 -192.206,-365.754 -196.224,-370.986"/>
<polygon fill="black" stroke="black" points="-199.038,-368.904 -202.353,-378.967 -193.486,-373.168 -199.038,-368.904"/>
</g>
<!-- miyota -->
<g id="node36" class="node"><title>miyota</title>
<ellipse fill="none" stroke="black" cx="-147.257" cy="-270.456" rx="36.2938" ry="18"/>
<text text-anchor="middle" x="-147.257" y="-266.756" font-family="Times,serif" font-size="14.00">Miyota</text>
</g>
<!-- citizen&#45;&gt;miyota -->
<g id="edge17" class="edge"><title>citizen&#45;&gt;miyota</title>
<path fill="none" stroke="black" d="M-165.028,-320.704C-162.584,-313.793 -159.732,-305.728 -157.036,-298.107"/>
<polygon fill="black" stroke="black" points="-153.666,-299.075 -153.631,-288.48 -160.266,-296.741 -153.666,-299.075"/>
</g>
<!-- eta -->
<g id="node17" class="node"><title>eta</title>
<ellipse fill="none" stroke="black" cx="416.341" cy="-490.82" rx="27.8951" ry="18"/>
<text text-anchor="middle" x="416.341" y="-487.12" font-family="Times,serif" font-size="14.00">ETA</text>
</g>
<!-- frederiqueConstant -->
<g id="node19" class="node"><title>frederiqueConstant</title>
<ellipse fill="none" stroke="black" cx="165.329" cy="255.001" rx="82.5854" ry="18"/>
<text text-anchor="middle" x="165.329" y="258.701" font-family="Times,serif" font-size="14.00">Frédérique Constant</text>
</g>
<!-- frederiqueConstant&#45;&gt;alpina -->
<g id="edge1" class="edge"><title>frederiqueConstant&#45;&gt;alpina</title>
<path fill="none" stroke="black" d="M82.6365,255C81.6401,255 80.6495,255 79.6658,254.999"/>
<polygon fill="black" stroke="black" points="79.4352,258.5 69.4354,254.999 79.4355,251.5 79.4352,258.5"/>
</g>
<!-- girardPerregaux -->
<g id="node20" class="node"><title>girardPerregaux</title>
<ellipse fill="none" stroke="black" cx="462.538" cy="12.1538" rx="71.4873" ry="18"/>
<text text-anchor="middle" x="462.538" y="15.8538" font-family="Times,serif" font-size="14.00">Girard Perregaux</text>
</g>
<!-- glashutteOriginal -->
<g id="node21" class="node"><title>glashutteOriginal</title>
<ellipse fill="none" stroke="black" cx="517.068" cy="-394.596" rx="76.0865" ry="18"/>
<text text-anchor="middle" x="517.068" y="-390.896" font-family="Times,serif" font-size="14.00">Glashütte Original</text>
</g>
<!-- gucci -->
<g id="node22" class="node"><title>gucci</title>
<ellipse fill="none" stroke="black" cx="313.275" cy="66.1833" rx="31.6951" ry="18"/>
<text text-anchor="middle" x="313.275" y="69.8833" font-family="Times,serif" font-size="14.00">Gucci</text>
</g>
<!-- hamilton -->
<g id="node23" class="node"><title>hamilton</title>
<ellipse fill="none" stroke="black" cx="331.24" cy="-468.071" rx="44.393" ry="18"/>
<text text-anchor="middle" x="331.24" y="-464.371" font-family="Times,serif" font-size="14.00">Hamilton</text>
</g>
<!-- harryWinston -->
<g id="node24" class="node"><title>harryWinston</title>
<ellipse fill="none" stroke="black" cx="231.41" cy="-207.528" rx="63.8893" ry="18"/>
<text text-anchor="middle" x="231.41" y="-203.828" font-family="Times,serif" font-size="14.00">Harry Winston</text>
</g>
<!-- hermes -->
<g id="node25" class="node"><title>hermes</title>
<ellipse fill="none" stroke="black" cx="437" cy="381" rx="38.1938" ry="18"/>
<text text-anchor="middle" x="437" y="384.7" font-family="Times,serif" font-size="14.00">Hermès</text>
</g>
<!-- hublot -->
<g id="node26" class="node"><title>hublot</title>
<ellipse fill="none" stroke="black" cx="91.1545" cy="-228.06" rx="35.194" ry="18"/>
<text text-anchor="middle" x="91.1545" y="-224.36" font-family="Times,serif" font-size="14.00">Hublot</text>
</g>
<!-- iwc -->
<g id="node27" class="node"><title>iwc</title>
<ellipse fill="none" stroke="black" cx="-63.8496" cy="163.396" rx="28.6953" ry="18"/>
<text text-anchor="middle" x="-63.8496" y="167.096" font-family="Times,serif" font-size="14.00">IWC</text>
</g>
<!-- jaegerLeCoultre -->
<g id="node28" class="node"><title>jaegerLeCoultre</title>
<ellipse fill="none" stroke="black" cx="17.0333" cy="-145.661" rx="71.4873" ry="18"/>
<text text-anchor="middle" x="17.0333" y="-141.961" font-family="Times,serif" font-size="14.00">Jaeger&#45;LeCoultre</text>
</g>
<!-- jaquetDroz -->
<g id="node29" class="node"><title>jaquetDroz</title>
<ellipse fill="none" stroke="black" cx="618.112" cy="-287.961" rx="53.0913" ry="18"/>
<text text-anchor="middle" x="618.112" y="-284.261" font-family="Times,serif" font-size="14.00">Jaquet Droz</text>
</g>
<!-- kering -->
<g id="node30" class="node"><title>kering</title>
<ellipse fill="none" stroke="black" cx="354.812" cy="-11.2242" rx="35.194" ry="18"/>
<text text-anchor="middle" x="354.812" y="-7.52424" font-family="Times,serif" font-size="14.00">Kering</text>
</g>
<!-- kering&#45;&gt;boucheron -->
<g id="edge23" class="edge"><title>kering&#45;&gt;boucheron</title>
<path fill="none" stroke="black" d="M323.611,-19.6947C318.848,-20.9877 313.835,-22.3486 308.798,-23.7161"/>
<polygon fill="black" stroke="black" points="307.874,-20.3401 299.141,-26.3378 309.708,-27.0955 307.874,-20.3401"/>
</g>
<!-- kering&#45;&gt;girardPerregaux -->
<g id="edge24" class="edge"><title>kering&#45;&gt;girardPerregaux</title>
<path fill="none" stroke="black" d="M387.425,-4.14663C390.913,-3.38984 394.542,-2.60235 398.239,-1.80005"/>
<polygon fill="black" stroke="black" points="399.103,-5.19392 408.134,0.347316 397.619,1.64686 399.103,-5.19392"/>
</g>
<!-- kering&#45;&gt;gucci -->
<g id="edge25" class="edge"><title>kering&#45;&gt;gucci</title>
<path fill="none" stroke="black" d="M345.386,6.34073C340.038,16.3075 333.242,28.972 327.281,40.0816"/>
<polygon fill="black" stroke="black" points="330.332,41.7979 322.52,48.9545 324.164,38.488 330.332,41.7979"/>
</g>
<!-- ulysseNardin -->
<g id="node54" class="node"><title>ulysseNardin</title>
<ellipse fill="none" stroke="black" cx="401.546" cy="-88.9843" rx="61.99" ry="18"/>
<text text-anchor="middle" x="401.546" y="-85.2843" font-family="Times,serif" font-size="14.00">Ulysse Nardin</text>
</g>
<!-- kering&#45;&gt;ulysseNardin -->
<g id="edge26" class="edge"><title>kering&#45;&gt;ulysseNardin</title>
<path fill="none" stroke="black" d="M365.184,-28.4817C371.21,-38.5085 378.927,-51.3484 385.7,-62.6182"/>
<polygon fill="black" stroke="black" points="382.728,-64.4678 390.879,-71.236 388.728,-60.8619 382.728,-64.4678"/>
</g>
<!-- langeUndSohne -->
<g id="node31" class="node"><title>langeUndSohne</title>
<ellipse fill="none" stroke="black" cx="130.051" cy="-115.598" rx="77.9862" ry="18"/>
<text text-anchor="middle" x="130.051" y="-111.898" font-family="Times,serif" font-size="14.00">A. Lange &amp; Söhne</text>
</g>
<!-- leonHatot -->
<g id="node32" class="node"><title>leonHatot</title>
<ellipse fill="none" stroke="black" cx="349.145" cy="-331.015" rx="50.8918" ry="18"/>
<text text-anchor="middle" x="349.145" y="-327.315" font-family="Times,serif" font-size="14.00">Léon Hatot</text>
</g>
<!-- longines -->
<g id="node33" class="node"><title>longines</title>
<ellipse fill="none" stroke="black" cx="629.002" cy="-186.277" rx="43.5923" ry="18"/>
<text text-anchor="middle" x="629.002" y="-182.577" font-family="Times,serif" font-size="14.00">Longines</text>
</g>
<!-- lvmh -->
<g id="node34" class="node"><title>lvmh</title>
<ellipse fill="none" stroke="black" cx="39.967" cy="-288.769" rx="37.0935" ry="18"/>
<text text-anchor="middle" x="39.967" y="-285.069" font-family="Times,serif" font-size="14.00">LVMH</text>
</g>
<!-- lvmh&#45;&gt;bulgari -->
<g id="edge19" class="edge"><title>lvmh&#45;&gt;bulgari</title>
<path fill="none" stroke="black" d="M20.9219,-273.048C16.036,-269.015 10.6889,-264.601 5.49196,-260.311"/>
<polygon fill="black" stroke="black" points="7.47697,-257.411 -2.4631,-253.744 3.02075,-262.81 7.47697,-257.411"/>
</g>
<!-- lvmh&#45;&gt;hublot -->
<g id="edge20" class="edge"><title>lvmh&#45;&gt;hublot</title>
<path fill="none" stroke="black" d="M54.2256,-271.858C59.2175,-265.938 64.9304,-259.162 70.3468,-252.738"/>
<polygon fill="black" stroke="black" points="73.2021,-254.781 76.9724,-244.88 67.8505,-250.269 73.2021,-254.781"/>
</g>
<!-- tag -->
<g id="node51" class="node"><title>tag</title>
<ellipse fill="none" stroke="black" cx="-10.6455" cy="-350.062" rx="52.7911" ry="18"/>
<text text-anchor="middle" x="-10.6455" y="-346.362" font-family="Times,serif" font-size="14.00">TAG Heuer</text>
</g>
<!-- lvmh&#45;&gt;tag -->
<g id="edge21" class="edge"><title>lvmh&#45;&gt;tag</title>
<path fill="none" stroke="black" d="M26.1369,-305.518C21.2802,-311.399 15.708,-318.148 10.3942,-324.583"/>
<polygon fill="black" stroke="black" points="7.54342,-322.538 3.87497,-332.478 12.9411,-326.995 7.54342,-322.538"/>
</g>
<!-- zenith -->
<g id="node57" class="node"><title>zenith</title>
<ellipse fill="none" stroke="black" cx="100.81" cy="-339.902" rx="33.5952" ry="18"/>
<text text-anchor="middle" x="100.81" y="-336.202" font-family="Times,serif" font-size="14.00">Zenith</text>
</g>
<!-- lvmh&#45;&gt;zenith -->
<g id="edge22" class="edge"><title>lvmh&#45;&gt;zenith</title>
<path fill="none" stroke="black" d="M58.5525,-304.389C63.6242,-308.651 69.2158,-313.35 74.6252,-317.896"/>
<polygon fill="black" stroke="black" points="72.4309,-320.624 82.3383,-324.378 76.9346,-315.265 72.4309,-320.624"/>
</g>
<!-- mido -->
<g id="node35" class="node"><title>mido</title>
<ellipse fill="none" stroke="black" cx="491.68" cy="-205.292" rx="30.5947" ry="18"/>
<text text-anchor="middle" x="491.68" y="-201.592" font-family="Times,serif" font-size="14.00">Mido</text>
</g>
<!-- montBlanc -->
<g id="node37" class="node"><title>montBlanc</title>
<ellipse fill="none" stroke="black" cx="-95.4354" cy="-110.368" rx="53.0913" ry="18"/>
<text text-anchor="middle" x="-95.4354" y="-106.668" font-family="Times,serif" font-size="14.00">Mont Blanc</text>
</g>
<!-- omega -->
<g id="node38" class="node"><title>omega</title>
<ellipse fill="none" stroke="black" cx="223.35" cy="-495.052" rx="36.2938" ry="18"/>
<text text-anchor="middle" x="223.35" y="-491.352" font-family="Times,serif" font-size="14.00">Omega</text>
</g>
<!-- orient -->
<g id="node39" class="node"><title>orient</title>
<ellipse fill="none" stroke="black" cx="33.3952" cy="328.68" rx="33.2948" ry="18"/>
<text text-anchor="middle" x="33.3952" y="332.38" font-family="Times,serif" font-size="14.00">Orient</text>
</g>
<!-- panerai -->
<g id="node40" class="node"><title>panerai</title>
<ellipse fill="none" stroke="black" cx="-223.944" cy="171.144" rx="37.0935" ry="18"/>
<text text-anchor="middle" x="-223.944" y="174.844" font-family="Times,serif" font-size="14.00">Panerai</text>
</g>
<!-- patek -->
<g id="node41" class="node"><title>patek</title>
<ellipse fill="none" stroke="black" cx="-295" cy="339" rx="61.99" ry="18"/>
<text text-anchor="middle" x="-295" y="342.7" font-family="Times,serif" font-size="14.00">Patek Philippe</text>
</g>
<!-- piaget -->
<g id="node42" class="node"><title>piaget</title>
<ellipse fill="none" stroke="black" cx="219.846" cy="26.5653" rx="32.4942" ry="18"/>
<text text-anchor="middle" x="219.846" y="30.2653" font-family="Times,serif" font-size="14.00">Piaget</text>
</g>
<!-- richardMille -->
<g id="node43" class="node"><title>richardMille</title>
<ellipse fill="none" stroke="black" cx="-129" cy="339" rx="60.3893" ry="18"/>
<text text-anchor="middle" x="-129" y="342.7" font-family="Times,serif" font-size="14.00">Richard Mille</text>
</g>
<!-- richemont -->
<g id="node44" class="node"><title>richemont</title>
<ellipse fill="none" stroke="black" cx="16.7195" cy="19.6622" rx="50.0912" ry="18"/>
<text text-anchor="middle" x="16.7195" y="23.3622" font-family="Times,serif" font-size="14.00">Richemont</text>
</g>
<!-- richemont&#45;&gt;baumeEtMercier -->
<g id="edge27" class="edge"><title>richemont&#45;&gt;baumeEtMercier</title>
<path fill="none" stroke="black" d="M-33.2667,20.9946C-56.4128,21.6116 -84.5916,22.3627 -111.034,23.0675"/>
<polygon fill="black" stroke="black" points="-110.98,26.5672 -121.069,23.335 -111.166,19.5697 -110.98,26.5672"/>
</g>
<!-- richemont&#45;&gt;cartier -->
<g id="edge28" class="edge"><title>richemont&#45;&gt;cartier</title>
<path fill="none" stroke="black" d="M42.9114,4.06912C88.0923,-22.8289 180.527,-77.8589 229.449,-106.984"/>
<polygon fill="black" stroke="black" points="227.959,-110.17 238.342,-112.279 231.54,-104.156 227.959,-110.17"/>
</g>
<!-- richemont&#45;&gt;iwc -->
<g id="edge29" class="edge"><title>richemont&#45;&gt;iwc</title>
<path fill="none" stroke="black" d="M6.6783,37.5756C-7.4054,62.7008 -33.111,108.559 -49.2931,137.428"/>
<polygon fill="black" stroke="black" points="-46.2428,139.144 -54.1855,146.156 -52.3489,135.721 -46.2428,139.144"/>
</g>
<!-- richemont&#45;&gt;jaegerLeCoultre -->
<g id="edge30" class="edge"><title>richemont&#45;&gt;jaegerLeCoultre</title>
<path fill="none" stroke="black" d="M16.7537,1.65501C16.808,-26.9652 16.9145,-83.0772 16.9793,-117.186"/>
<polygon fill="black" stroke="black" points="13.4796,-117.431 16.9987,-127.424 20.4796,-117.418 13.4796,-117.431"/>
</g>
<!-- richemont&#45;&gt;langeUndSohne -->
<g id="edge31" class="edge"><title>richemont&#45;&gt;langeUndSohne</title>
<path fill="none" stroke="black" d="M31.3036,2.25617C50.9162,-21.1514 85.9366,-62.9482 108.568,-89.9584"/>
<polygon fill="black" stroke="black" points="106.058,-92.4122 115.163,-97.8295 111.423,-87.9165 106.058,-92.4122"/>
</g>
<!-- richemont&#45;&gt;montBlanc -->
<g id="edge32" class="edge"><title>richemont&#45;&gt;montBlanc</title>
<path fill="none" stroke="black" d="M1.82624,2.39525C-17.5301,-20.046 -51.4765,-59.4026 -73.7076,-85.1768"/>
<polygon fill="black" stroke="black" points="-76.5993,-83.1708 -80.4805,-93.0292 -71.2987,-87.7428 -76.5993,-83.1708"/>
</g>
<!-- richemont&#45;&gt;panerai -->
<g id="edge33" class="edge"><title>richemont&#45;&gt;panerai</title>
<path fill="none" stroke="black" d="M-8.12919,35.3029C-52.2221,63.0566 -144.053,120.858 -192.484,151.343"/>
<polygon fill="black" stroke="black" points="-190.673,154.338 -201.001,156.703 -194.402,148.414 -190.673,154.338"/>
</g>
<!-- richemont&#45;&gt;piaget -->
<g id="edge34" class="edge"><title>richemont&#45;&gt;piaget</title>
<path fill="none" stroke="black" d="M66.6699,21.3597C100.589,22.5124 144.968,24.0206 177.221,25.1167"/>
<polygon fill="black" stroke="black" points="177.363,21.6194 187.238,25.4571 177.125,28.6154 177.363,21.6194"/>
</g>
<!-- rogerDubuis -->
<g id="node46" class="node"><title>rogerDubuis</title>
<ellipse fill="none" stroke="black" cx="249.82" cy="170.367" rx="59.5901" ry="18"/>
<text text-anchor="middle" x="249.82" y="174.067" font-family="Times,serif" font-size="14.00">Roger Dubuis</text>
</g>
<!-- richemont&#45;&gt;rogerDubuis -->
<g id="edge35" class="edge"><title>richemont&#45;&gt;rogerDubuis</title>
<path fill="none" stroke="black" d="M41.2248,35.5054C83.0403,62.54 168.255,117.633 215.809,148.378"/>
<polygon fill="black" stroke="black" points="217.734,145.455 224.232,153.823 213.933,151.333 217.734,145.455"/>
</g>
<!-- vacheronConstantin -->
<g id="node55" class="node"><title>vacheronConstantin</title>
<ellipse fill="none" stroke="black" cx="91.1182" cy="166.731" rx="85.2851" ry="18"/>
<text text-anchor="middle" x="91.1182" y="170.431" font-family="Times,serif" font-size="14.00">Vacheron Constantin</text>
</g>
<!-- richemont&#45;&gt;vacheronConstantin -->
<g id="edge36" class="edge"><title>richemont&#45;&gt;vacheronConstantin</title>
<path fill="none" stroke="black" d="M25.6938,37.4021C38.5273,62.7711 62.2337,109.633 77.3113,139.438"/>
<polygon fill="black" stroke="black" points="80.4878,137.964 81.8788,148.467 74.2415,141.124 80.4878,137.964"/>
</g>
<!-- vanCleef -->
<g id="node56" class="node"><title>vanCleef</title>
<ellipse fill="none" stroke="black" cx="-232.328" cy="-129.183" rx="82.5854" ry="18"/>
<text text-anchor="middle" x="-232.328" y="-125.483" font-family="Times,serif" font-size="14.00">Van Cleef &amp; Arpels</text>
</g>
<!-- richemont&#45;&gt;vanCleef -->
<g id="edge37" class="edge"><title>richemont&#45;&gt;vanCleef</title>
<path fill="none" stroke="black" d="M-9.4622,4.01452C-53.8777,-22.5307 -144.122,-76.4657 -195.097,-106.931"/>
<polygon fill="black" stroke="black" points="-197.048,-104.02 -203.836,-112.154 -193.457,-110.028 -197.048,-104.02"/>
</g>
<!-- rado -->
<g id="node45" class="node"><title>rado</title>
<ellipse fill="none" stroke="black" cx="639.421" cy="-499.366" rx="29.4969" ry="18"/>
<text text-anchor="middle" x="639.421" y="-495.666" font-family="Times,serif" font-size="14.00">Rado</text>
</g>
<!-- rolex -->
<g id="node47" class="node"><title>rolex</title>
<ellipse fill="none" stroke="black" cx="-325.605" cy="-259.32" rx="31.6951" ry="18"/>
<text text-anchor="middle" x="-325.605" y="-255.62" font-family="Times,serif" font-size="14.00">Rolex</text>
</g>
<!-- tudor -->
<g id="node53" class="node"><title>tudor</title>
<ellipse fill="none" stroke="black" cx="-254.395" cy="-248.68" rx="32.4942" ry="18"/>
<text text-anchor="middle" x="-254.395" y="-244.98" font-family="Times,serif" font-size="14.00">Tudor</text>
</g>
<!-- rolex&#45;&gt;tudor -->
<g id="edge40" class="edge"><title>rolex&#45;&gt;tudor</title>
<path fill="none" stroke="black" d="M-294.578,-254.684C-294.489,-254.671 -294.4,-254.657 -294.311,-254.644"/>
<polygon fill="black" stroke="black" points="-295.361,-258.34 -285.988,-253.401 -296.396,-251.417 -295.361,-258.34"/>
</g>
<!-- seagull -->
<g id="node48" class="node"><title>seagull</title>
<ellipse fill="none" stroke="black" cx="443" cy="108" rx="64.9885" ry="18"/>
<text text-anchor="middle" x="443" y="111.7" font-family="Times,serif" font-size="14.00">Tianjin Seagull</text>
</g>
<!-- seiko -->
<g id="node49" class="node"><title>seiko</title>
<ellipse fill="none" stroke="black" cx="104.605" cy="339.32" rx="30.5947" ry="18"/>
<text text-anchor="middle" x="104.605" y="343.02" font-family="Times,serif" font-size="14.00">Seiko</text>
</g>
<!-- seiko&#45;&gt;orient -->
<g id="edge18" class="edge"><title>seiko&#45;&gt;orient</title>
<path fill="none" stroke="black" d="M74.8181,334.869C74.7228,334.855 74.6275,334.841 74.5321,334.827"/>
<polygon fill="black" stroke="black" points="74.9615,338.43 65.5885,333.49 75.9959,331.506 74.9615,338.43"/>
</g>
<!-- swatch -->
<g id="node50" class="node"><title>swatch</title>
<ellipse fill="none" stroke="black" cx="454.256" cy="-325.879" rx="36.2938" ry="18"/>
<text text-anchor="middle" x="454.256" y="-322.179" font-family="Times,serif" font-size="14.00">Swatch</text>
</g>
<!-- swatch&#45;&gt;blancpain -->
<g id="edge2" class="edge"><title>swatch&#45;&gt;blancpain</title>
<path fill="none" stroke="black" d="M418.594,-329.706C381.355,-333.702 322.468,-340.021 279.296,-344.653"/>
<polygon fill="black" stroke="black" points="278.805,-341.186 269.235,-345.733 279.552,-348.146 278.805,-341.186"/>
</g>
<!-- swatch&#45;&gt;breguet -->
<g id="edge3" class="edge"><title>swatch&#45;&gt;breguet</title>
<path fill="none" stroke="black" d="M485.642,-335.166C516.767,-344.376 564.676,-358.551 599.215,-368.771"/>
<polygon fill="black" stroke="black" points="598.441,-372.192 609.023,-371.673 600.427,-365.48 598.441,-372.192"/>
</g>
<!-- swatch&#45;&gt;certina -->
<g id="edge4" class="edge"><title>swatch&#45;&gt;certina</title>
<path fill="none" stroke="black" d="M442.894,-308.653C428.51,-286.845 403.605,-249.086 386.967,-223.861"/>
<polygon fill="black" stroke="black" points="389.885,-221.928 381.457,-215.508 384.042,-225.782 389.885,-221.928"/>
</g>
<!-- swatch&#45;&gt;eta -->
<g id="edge5" class="edge"><title>swatch&#45;&gt;eta</title>
<path fill="none" stroke="black" d="M450.126,-343.845C443.517,-372.598 430.514,-429.164 422.708,-463.12"/>
<polygon fill="black" stroke="black" points="419.295,-462.347 420.466,-472.877 426.117,-463.915 419.295,-462.347"/>
</g>
<!-- swatch&#45;&gt;glashutteOriginal -->
<g id="edge7" class="edge"><title>swatch&#45;&gt;glashutteOriginal</title>
<path fill="none" stroke="black" d="M469.461,-342.514C476.762,-350.501 485.672,-360.249 493.801,-369.142"/>
<polygon fill="black" stroke="black" points="491.353,-371.651 500.683,-376.671 496.52,-366.928 491.353,-371.651"/>
</g>
<!-- swatch&#45;&gt;hamilton -->
<g id="edge8" class="edge"><title>swatch&#45;&gt;hamilton</title>
<path fill="none" stroke="black" d="M439.904,-342.469C418.469,-367.245 377.938,-414.094 352.892,-443.044"/>
<polygon fill="black" stroke="black" points="350.163,-440.849 346.267,-450.701 355.457,-445.429 350.163,-440.849"/>
</g>
<!-- swatch&#45;&gt;harryWinston -->
<g id="edge9" class="edge"><title>swatch&#45;&gt;harryWinston</title>
<path fill="none" stroke="black" d="M429.126,-312.533C390.469,-292.003 316.108,-252.51 270.414,-228.243"/>
<polygon fill="black" stroke="black" points="271.873,-225.054 261.4,-223.455 268.59,-231.237 271.873,-225.054"/>
</g>
<!-- swatch&#45;&gt;jaquetDroz -->
<g id="edge10" class="edge"><title>swatch&#45;&gt;jaquetDroz</title>
<path fill="none" stroke="black" d="M487.415,-318.206C509.457,-313.105 538.904,-306.29 564.267,-300.421"/>
<polygon fill="black" stroke="black" points="565.171,-303.805 574.124,-298.14 563.592,-296.985 565.171,-303.805"/>
</g>
<!-- swatch&#45;&gt;leonHatot -->
<g id="edge11" class="edge"><title>swatch&#45;&gt;leonHatot</title>
<path fill="none" stroke="black" d="M417.788,-327.661C415.102,-327.792 412.353,-327.927 409.574,-328.062"/>
<polygon fill="black" stroke="black" points="409.255,-324.574 399.437,-328.558 409.596,-331.565 409.255,-324.574"/>
</g>
<!-- swatch&#45;&gt;longines -->
<g id="edge12" class="edge"><title>swatch&#45;&gt;longines</title>
<path fill="none" stroke="black" d="M473.625,-310.406C504.474,-285.76 564.926,-237.467 600.651,-208.926"/>
<polygon fill="black" stroke="black" points="603.11,-211.441 608.739,-202.465 598.741,-205.972 603.11,-211.441"/>
</g>
<!-- swatch&#45;&gt;mido -->
<g id="edge13" class="edge"><title>swatch&#45;&gt;mido</title>
<path fill="none" stroke="black" d="M459.778,-308.086C465.941,-288.226 475.99,-255.849 483.162,-232.738"/>
<polygon fill="black" stroke="black" points="486.514,-233.746 486.135,-223.158 479.828,-231.671 486.514,-233.746"/>
</g>
<!-- swatch&#45;&gt;omega -->
<g id="edge6" class="edge"><title>swatch&#45;&gt;omega</title>
<path fill="none" stroke="black" d="M433.765,-340.892C392.514,-371.115 299.369,-439.357 252.071,-474.01"/>
<polygon fill="black" stroke="black" points="249.794,-471.339 243.796,-480.072 253.931,-476.986 249.794,-471.339"/>
</g>
<!-- swatch&#45;&gt;rado -->
<g id="edge14" class="edge"><title>swatch&#45;&gt;rado</title>
<path fill="none" stroke="black" d="M471.344,-341.89C504.527,-372.98 577.745,-441.58 615.647,-477.091"/>
<polygon fill="black" stroke="black" points="613.481,-479.858 623.171,-484.141 618.267,-474.75 613.481,-479.858"/>
</g>
<!-- tissot -->
<g id="node52" class="node"><title>tissot</title>
<ellipse fill="none" stroke="black" cx="517.446" cy="-509.202" rx="32.4942" ry="18"/>
<text text-anchor="middle" x="517.446" y="-505.502" font-family="Times,serif" font-size="14.00">Tissot</text>
</g>
<!-- swatch&#45;&gt;tissot -->
<g id="edge15" class="edge"><title>swatch&#45;&gt;tissot</title>
<path fill="none" stroke="black" d="M460.43,-343.791C471.501,-375.908 494.795,-443.489 507.925,-481.58"/>
<polygon fill="black" stroke="black" points="504.772,-483.174 511.34,-491.488 511.39,-480.893 504.772,-483.174"/>
</g>
</g>
</svg>
